# xmcd
#
# Track frame offsets:
# 150
# 10533
# 27787
# 40411
# 60509
# 74914
# 98843
# 111914
# 129778
# 154187
# 165914
# 185535
# 205423
# 224362
# 239557
# 261608
# 275937
#
# Disc length: 3805 seconds
#
#
# Revision: 0
# Processed by: cddbd v1.5.1PL0 Copyright (c) Steve Scherf et al.
# Submitted via: FreeRIP 2.51 
#
DISCID=fd0edb11
DTITLE=Fidbek - Erro Musical
DYEAR=2003
DGENRE=
TTITLE0=Musicalmente Sente! c/ Bezegol
TTITLE1=15 dias por semana
TTITLE2=Continuacão
TTITLE3=Onde andas ? c/ Martinêz
TTITLE4=Hiphoprecipicio
TTITLE5=Totalidade de uma imagem c/ Martinêz
TTITLE6=Frazer c/ VRZ
TTITLE7=Raciocinio
TTITLE8=Amor infinito c/ Fiko e Martinêz
TTITLE9=em extincão
TTITLE10=Do mais profundo que há
TTITLE11=Pouco convencional
TTITLE12=O sonho é o caminho c/ VRZ
TTITLE13=Ultimo riso
TTITLE14=Musica a and c/ Bezegol e Supremo G
TTITLE15=Continua c/ New Max
TTITLE16=A nossa herança c/ Bezegol
EXTD=
EXTT0=
EXTT1=
EXTT2=
EXTT3=
EXTT4=
EXTT5=
EXTT6=
EXTT7=
EXTT8=
EXTT9=
EXTT10=
EXTT11=
EXTT12=
EXTT13=
EXTT14=
EXTT15=
EXTT16=
PLAYORDER=
